<?xml version="1.0" encoding="UTF-8" standalone="no"?>
<!DOCTYPE svg PUBLIC "-//W3C//DTD SVG 1.1//EN"
 "http://www.w3.org/Graphics/SVG/1.1/DTD/svg11.dtd">
<!-- Generated by graphviz version 2.38.0 (20140413.2041)
 -->
<!-- Title: clustergraph Pages: 1 -->
<svg width="172pt" height="207pt"
 viewBox="0.00 0.00 172.00 207.00" xmlns="http://www.w3.org/2000/svg" xmlns:xlink="http://www.w3.org/1999/xlink">
<g id="graph0" class="graph" transform="scale(1 1) rotate(0) translate(4 203)">
<title>clustergraph</title>
<polygon fill="white" stroke="none" points="-4,4 -4,-203 168,-203 168,4 -4,4"/>
<g id="clust1" class="cluster"><title>cluster_phone1</title>
<polygon fill="none" stroke="black" points="8,-8 8,-155 78,-155 78,-8 8,-8"/>
<text text-anchor="middle" x="36" y="-139.8" font-family="Times,serif" font-size="14.00">phone1</text>
</g>
<g id="clust2" class="cluster"><title>cluster_phone2</title>
<polygon fill="none" stroke="black" points="86,-8 86,-155 156,-155 156,-8 86,-8"/>
<text text-anchor="middle" x="128" y="-139.8" font-family="Times,serif" font-size="14.00">phone2</text>
</g>
<!-- P1 -->
<g id="node1" class="node"><title>P1</title>
<ellipse fill="none" stroke="black" cx="43" cy="-106" rx="27" ry="18"/>
<text text-anchor="middle" x="43" y="-102.3" font-family="Times,serif" font-size="14.00">P1</text>
</g>
<!-- T12 -->
<g id="node2" class="node"><title>T12</title>
<ellipse fill="none" stroke="black" cx="43" cy="-34" rx="27" ry="18"/>
<text text-anchor="start" x="34.5" y="-31.3" font-family="Times,serif" font-size="14.00">t</text>
<text text-anchor="start" x="38.5" y="-31.3" font-family="Times,serif" baseline-shift="sub" font-size="14.00">12</text>
</g>
<!-- P1&#45;&#45;T12 -->
<g id="edge4" class="edge"><title>P1&#45;&#45;T12</title>
<path fill="none" stroke="black" d="M43,-87.6966C43,-76.8463 43,-62.9167 43,-52.1043"/>
</g>
<!-- P2 -->
<g id="node3" class="node"><title>P2</title>
<ellipse fill="none" stroke="black" cx="121" cy="-106" rx="27" ry="18"/>
<text text-anchor="middle" x="121" y="-102.3" font-family="Times,serif" font-size="14.00">P2</text>
</g>
<!-- T12&#45;&#45;P2 -->
<g id="edge5" class="edge"><title>T12&#45;&#45;P2</title>
<path fill="none" stroke="black" d="M58.3783,-48.801C72.0431,-61.0643 91.9152,-78.8983 105.59,-91.1703"/>
</g>
<!-- T21 -->
<g id="node4" class="node"><title>T21</title>
<ellipse fill="none" stroke="black" cx="121" cy="-34" rx="27" ry="18"/>
<text text-anchor="middle" x="121" y="-30.3" font-family="Times,serif" font-size="14.00">T21</text>
</g>
<!-- P2&#45;&#45;T21 -->
<g id="edge3" class="edge"><title>P2&#45;&#45;T21</title>
<path fill="none" stroke="black" d="M121,-87.6966C121,-76.8463 121,-62.9167 121,-52.1043"/>
</g>
<!-- T21&#45;&#45;P1 -->
<g id="edge6" class="edge"><title>T21&#45;&#45;P1</title>
<path fill="none" stroke="black" d="M105.622,-48.801C91.9569,-61.0643 72.0848,-78.8983 58.4103,-91.1703"/>
</g>
<!-- PS -->
<g id="node5" class="node"><title>PS</title>
<ellipse fill="none" stroke="black" cx="82" cy="-181" rx="27" ry="18"/>
<text text-anchor="middle" x="82" y="-177.3" font-family="Times,serif" font-size="14.00">PS</text>
</g>
<!-- PS&#45;&#45;P1 -->
<g id="edge1" class="edge"><title>PS&#45;&#45;P1</title>
<path fill="none" stroke="black" d="M73.3446,-163.799C66.8817,-151.702 58.0883,-135.242 51.6312,-123.156"/>
</g>
<!-- PS&#45;&#45;P2 -->
<g id="edge2" class="edge"><title>PS&#45;&#45;P2</title>
<path fill="none" stroke="black" d="M90.6554,-163.799C97.1183,-151.702 105.912,-135.242 112.369,-123.156"/>
</g>
</g>
</svg>
